<?xml version="1.0" standalone="no"?><!DOCTYPE svg PUBLIC "-//W3C//DTD SVG 1.1//EN" "http://www.w3.org/Graphics/SVG/1.1/DTD/svg11.dtd"><svg width="400px" height="400px" version="1.1" xmlns="http://www.w3.org/2000/svg" xmlns:xlink="http://www.w3.org/1999/xlink" xml:space="preserve" style="fill-rule:evenodd;clip-rule:evenodd;stroke-linejoin:round;stroke-miterlimit:1.41421;"><g><g id="Layer1" transform="matrix(0.15188,0,0,0.15188,168.233,184.831)"><g transform="matrix(29.777,-0.00806006,0.00806006,29.777,-2042.25,-2203.46)"><g transform="matrix(6.17818,0.0797602,0.0797602,-6.17818,-681.635,556.879)"><path d="M126.241,74.1085c0.0906667,0.0533333 0.157333,0.122667 0.2,0.208c0.0426667,0.0853333 0.0346667,0.186667 -0.024,0.304l-1.352,1.92c-0.0586667,0.0906667 -0.121333,0.142667 -0.188,0.156c-0.0666667,0.0133333 -0.148,-0.00933333 -0.244,-0.068c-0.261333,-0.197333 -0.549333,-0.349333 -0.864,-0.456c-0.314667,-0.106667 -0.648,-0.16 -1,-0.16c-0.437333,0 -0.84,0.0826667 -1.208,0.248c-0.368,0.165333 -0.685333,0.392 -0.952,0.68c-0.266667,0.288 -0.474667,0.624 -0.624,1.008c-0.149333,0.384 -0.224,0.794667 -0.224,1.232c0,0.437333 0.0746667,0.846667 0.224,1.228c0.149333,0.381333 0.357333,0.714667 0.624,1c0.266667,0.285333 0.584,0.510667 0.952,0.676c0.368,0.165333 0.770667,0.248 1.208,0.248c0.352,0 0.688,-0.0546667 1.008,-0.164c0.32,-0.109333 0.610667,-0.262667 0.872,-0.46c0.096,-0.0586667 0.176,-0.0826667 0.24,-0.072c0.064,0.0106667 0.128,0.0586667 0.192,0.144l1.368,1.968c0.0586667,0.117333 0.0666667,0.216 0.024,0.296c-0.0426667,0.08 -0.109333,0.146667 -0.2,0.2c-0.501333,0.336 -1.04133,0.596 -1.62,0.78c-0.578667,0.184 -1.188,0.276 -1.828,0.276c-0.565333,0 -1.108,-0.072 -1.628,-0.216c-0.52,-0.144 -1.00667,-0.349333 -1.46,-0.616c-0.453333,-0.266667 -0.865333,-0.585333 -1.236,-0.956c-0.370667,-0.370667 -0.689333,-0.781333 -0.956,-1.232c-0.266667,-0.450667 -0.472,-0.936 -0.616,-1.456c-0.144,-0.52 -0.216,-1.06267 -0.216,-1.628c0,-0.565333 0.072,-1.108 0.216,-1.628c0.144,-0.52 0.349333,-1.008 0.616,-1.464c0.266667,-0.456 0.585333,-0.870667 0.956,-1.244c0.370667,-0.373333 0.782667,-0.692 1.236,-0.956c0.453333,-0.264 0.94,-0.469333 1.46,-0.616c0.52,-0.146667 1.06267,-0.22 1.628,-0.22c0.64,0 1.244,0.0893333 1.812,0.268c0.568,0.178667 1.10267,0.436 1.604,0.772Z" style="fill:none;stroke-width:0.36px;stroke:#000;"/></g><g transform="matrix(6.17818,0.0797602,0.0797602,-6.17818,-681.635,556.879)"><path d="M125.341,73.6094c-0.212933,-0.101578 -0.455053,-0.194802 -0.703553,-0.272968c-0.568,-0.178667 -1.172,-0.268 -1.812,-0.268c-0.565333,0 -1.108,0.0733333 -1.628,0.22c-0.52,0.146667 -1.00667,0.352 -1.46,0.616c-0.453333,0.264 -0.865333,0.582667 -1.236,0.956c-0.370667,0.373333 -0.689333,0.788 -0.956,1.244c-0.266667,0.456 -0.472,0.944 -0.616,1.464c-0.144,0.52 -0.216,1.06267 -0.216,1.628c0,0.565333 0.072,1.108 0.216,1.628c0.144,0.52 0.349333,1.00533 0.616,1.456c0.266667,0.450667 0.585333,0.861333 0.956,1.232c0.370667,0.370667 0.782667,0.689333 1.236,0.956c0.453333,0.266667 0.94,0.472 1.46,0.616c0.52,0.144 1.06267,0.216 1.628,0.216c0.64,0 1.24933,-0.092 1.828,-0.276c0.189875,-0.060375 0.375587,-0.128933 0.541777,-0.202683c-0.841839,-0.674635 -1.52423,-1.53239 -1.98538,-2.5212c-0.135455,0.0214191 -0.286392,0.0318826 -0.440392,0.0318826c-0.437333,-1.42109e-14 -0.84,-0.0826667 -1.208,-0.248c-0.368,-0.165333 -0.685333,-0.390667 -0.952,-0.676c-0.266667,-0.285333 -0.474667,-0.618667 -0.624,-1c-0.149333,-0.381333 -0.224,-0.790667 -0.224,-1.228c1.42109e-14,-0.437333 0.0746667,-0.848 0.224,-1.232c0.149333,-0.384 0.357333,-0.72 0.624,-1.008c0.266667,-0.288 0.584,-0.514667 0.952,-0.68c0.368,-0.165333 0.770667,-0.248 1.208,-0.248c0.176,0 0.347333,0.0133333 0.532212,0.0436941c0.488831,-0.970912 1.19431,-1.81261 2.03934,-2.44673Z" style="fill:none;stroke-width:0.36px;stroke:#000;"/></g><g transform="matrix(6.17818,0.0797602,0.0797602,-6.17818,-681.635,556.879)"><path d="M125.341,73.6094c-0.8595,0.65306 -1.56407,1.49311 -2.03934,2.44673c0.148455,0.0229726 0.310455,0.0629726 0.467788,0.116306c0.314667,0.106667 0.602667,0.258667 0.864,0.456c0.096,0.0586667 0.177333,0.0813333 0.244,0.068c0.0666667,-0.0133333 0.129333,-0.0653333 0.188,-0.156l1.352,-1.92c0.0586667,-0.117333 0.0666667,-0.218667 0.024,-0.304c-0.0426667,-0.0853333 -0.109333,-0.154667 -0.2,-0.208c-0.282,-0.189 -0.574547,-0.353109 -0.900447,-0.499032Z" style="fill:#00a4ff;stroke-width:0.36px;stroke:#000;"/></g><g transform="matrix(6.17818,0.0797602,0.0797602,-6.17818,-681.635,556.879)"><path d="M125.195,84.8218c0.387101,-0.160124 0.741389,-0.351567 1.07822,-0.577317c0.0906667,-0.0533333 0.157333,-0.12 0.2,-0.2c0.0426667,-0.08 0.0346667,-0.178667 -0.024,-0.296l-1.368,-1.968c-0.064,-0.0853333 -0.128,-0.133333 -0.192,-0.144c-0.064,-0.0106667 -0.144,0.0133333 -0.24,0.072c-0.261333,0.197333 -0.552,0.350667 -0.872,0.46c-0.18,0.0615 -0.365062,0.105703 -0.567608,0.132117c0.461228,0.988154 1.14454,1.85263 1.98538,2.5212Z" style="fill:#ffea00;stroke-width:0.36px;stroke:#000;"/></g><g transform="matrix(66.334,0.0101226,-0.000104201,0.682838,-7454.38,9.6848)"><path d="M112.127,82.6494l0.0500412,-0.0849184c0.0586667,-0.064 0.146667,-0.096 0.264,-0.096l2.112,0c0.0906667,0 0.174667,0.032 0.252,0.096c0.0773333,0.064 0.116,0.149333 0.116,0.256l0,1.936c1.42109e-14,0.096 -0.0306667,0.181333 -0.092,0.256c-0.0613333,0.0746667 -0.153333,0.112 -0.276,0.112l-2.112,0c-0.13475,0 -0.230812,-0.0404465 -0.286716,-0.131582l-0.0111915,-1.13179l-0.0161334,-1.21171Z" style="fill:#000;"/></g><g transform="matrix(66.334,0.0101226,-0.000104201,0.682838,-7454.38,13.3578)"><path d="M112.178,82.5641l0.262914,-0.0956052l2.112,1.42109e-14c0.0906667,-1.42109e-14 0.174667,0.032 0.252,0.096c0.0773333,0.064 0.116,0.149333 0.116,0.256l0,1.936c1.42109e-14,0.096 -0.0306667,0.181333 -0.092,0.256c-0.0613333,0.0746667 -0.153333,0.112 -0.276,0.112l-2.112,-1.42109e-14l-0.249608,-0.0869845l-0.0107797,-2.12689l-0.00252716,-0.346522Z" style="fill:#000;"/></g><g transform="matrix(66.334,0.0101226,-0.000104201,0.682838,-7454.38,17.0579)"><path d="M112.202,82.5554l0.239027,-0.0869188l2.112,1.42109e-14c0.0906667,-2.84217e-14 0.174667,0.032 0.252,0.096c0.0773333,0.064 0.116,0.149333 0.116,0.256l1.42109e-14,1.936c0,0.096 -0.0306667,0.181333 -0.092,0.256c-0.0613333,0.0746667 -0.153333,0.112 -0.276,0.112l-2.112,-1.42109e-14l-0.234428,-0.0816947l-0.00249342,-1.65032l-0.00210485,-0.837064Z" style="fill:#000;"/></g><g transform="matrix(66.334,0.0101226,-0.000104201,0.682838,-7454.38,20.7498)"><path d="M112.207,82.5537l0.23443,-0.0852471l2.112,1.42109e-14c0.0906667,0 0.174667,0.032 0.252,0.096c0.0773333,0.064 0.116,0.149333 0.116,0.256l0,1.936c1.42109e-14,0.096 -0.0306667,0.181333 -0.092,0.256c-0.0613333,0.0746667 -0.153333,0.112 -0.276,0.112l-2.112,0l-0.239022,-0.0832955l0.00390329,-1.61831l0.000689127,-0.869147Z" style="fill:#000;"/></g><g transform="matrix(66.334,0.0101226,-0.000104201,0.682838,-7454.38,24.4417)"><path d="M112.189,82.56l0.251717,-0.0915334l2.112,0c0.0906667,0 0.174667,0.032 0.252,0.096c0.0773333,0.064 0.116,0.149333 0.116,0.256l0,1.936c1.42109e-14,0.096 -0.0306667,0.181333 -0.092,0.256c-0.0613333,0.0746667 -0.153333,0.112 -0.276,0.112l-2.112,-1.42109e-14c-0.121,0 -0.210805,-0.0326133 -0.268631,-0.10007l0.0113109,-1.49415l0.00560354,-0.970249Z" style="fill:#000;"/></g><g transform="matrix(66.334,0.0101226,-0.000104201,0.682838,-7454.38,28.1336)"><path d="M112.141,82.6251l0.0357247,-0.0606237c0.0586667,-0.064 0.146667,-0.096 0.264,-0.096l2.112,1.42109e-14c0.0906667,0 0.174667,0.032 0.252,0.096c0.0773333,0.064 0.116,0.149333 0.116,0.256l0,1.936c1.42109e-14,0.096 -0.0306667,0.181333 -0.092,0.256c-0.0613333,0.0746667 -0.153333,0.112 -0.276,0.112l-2.112,-1.42109e-14c-0.183104,-1.42109e-14 -0.294773,-0.0746827 -0.333659,-0.233779c0.0119687,-0.669148 0.0233445,-1.42055 0.0339345,-2.2656Z" style="fill:#000;"/></g></g></g></g></svg>