<?xml version="1.0" standalone="no"?>
<!DOCTYPE svg PUBLIC "-//W3C//DTD SVG 1.1//EN" "http://www.w3.org/Graphics/SVG/1.1/DTD/svg11.dtd">
<svg width="400px" height="400px" version="1.1" xmlns="http://www.w3.org/2000/svg" xmlns:xlink="http://www.w3.org/1999/xlink" xml:space="preserve" style="fill-rule:evenodd;clip-rule:evenodd;stroke-linejoin:round;stroke-miterlimit:1.41421;">
    <g>
        <g id="Layer1">
            <g>
                <clipPath id="tag1">
                    <path d="M329.508,343.415C332.06,341.957 333.947,340.044 335.169,337.674C336.392,335.305 336.204,332.471 334.606,329.172L297.508,275.047C295.9,272.493 294.168,271.018 292.31,270.622C290.452,270.226 288.171,270.831 285.468,272.436C278.097,277.857 269.996,282.003 261.166,284.872C252.336,287.741 243.004,289.114 233.168,288.989C220.949,288.835 209.727,286.383 199.503,281.633C189.279,276.884 180.493,270.438 173.143,262.297C165.794,254.156 160.101,244.694 156.064,233.912C152.027,223.13 150.086,211.629 150.24,199.41C150.395,187.19 152.626,175.779 156.933,165.177C161.24,154.575 167.17,145.335 174.721,137.456C182.273,129.578 191.219,123.394 201.56,118.904C211.901,114.415 223.181,112.247 235.4,112.402C245.236,112.526 254.605,114.172 263.507,117.34C272.41,120.508 280.477,124.895 287.709,130.501C290.371,132.174 292.598,132.873 294.39,132.597C296.182,132.322 297.987,131.003 299.805,128.642L338.724,74.1366C340.404,70.8789 340.663,68.1249 339.499,65.8745C338.335,63.6242 336.496,61.7379 333.981,60.2157C320.092,50.6504 305.096,43.195 288.992,37.8495C272.889,32.504 255.896,29.7182 238.013,29.4922C222.217,29.2926 207.029,31.1127 192.449,34.9525C177.869,38.7924 164.198,44.3578 151.437,51.6487C138.676,58.9395 127.052,67.6979 116.564,77.9239C106.077,88.1498 97.0278,99.5117 89.4177,112.01C81.8075,124.508 75.8989,137.996 71.6918,152.474C67.4846,166.953 65.2812,182.09 65.0815,197.886C64.8819,213.682 66.702,228.87 70.5419,243.451C74.3818,258.031 79.9467,271.739 87.2366,284.574C94.5265,297.409 103.284,309.108 113.509,319.67C123.734,330.233 135.133,339.282 147.707,346.819C160.28,354.355 173.805,360.264 188.283,364.546C202.761,368.828 217.898,371.068 233.693,371.268C251.576,371.494 268.484,369.211 284.417,364.42C300.351,359.628 315.381,352.627 329.508,343.415Z"/>
                </clipPath>
                <g clip-path="url(#tag1)">
                    <g>
                        <g>
                            <path d="M-216.737,154.357L-201.725,154.093C-184.125,153.893 -157.726,153.791 -122.526,153.787L511.069,153.712C538.269,153.709 563.469,153.805 586.668,154C609.868,154.195 621.468,154.457 621.468,154.786L621.469,160.765C621.469,161.061 612.269,161.326 593.869,161.559C575.469,161.792 547.87,161.91 511.07,161.914L-122.525,161.989C-162.95,161.994 -191.768,161.873 -208.539,161.593L-211.897,158.098Z" style="fill:black;"/>
                        </g>
                        <g>
                            <path d="M-201.433,170.703L-122.56,170.398L511.035,170.324C538.235,170.32 563.435,170.416 586.635,170.611C609.834,170.806 621.434,171.068 621.434,171.398L621.435,177.376C621.435,177.673 612.235,177.937 593.835,178.17C575.436,178.403 547.836,178.521 511.036,178.526L-122.559,178.601L-197.44,178.341L-200.675,171.773Z" style="fill:black;"/>
                        </g>
                        <g>
                            <path d="M-194.229,187.409L-122.521,187.132L511.074,187.057C538.273,187.054 563.473,187.15 586.673,187.345C609.873,187.54 621.473,187.802 621.473,188.131L621.474,194.11C621.474,194.407 612.274,194.671 593.874,194.904C575.474,195.137 547.874,195.255 511.075,195.26L-122.52,195.334L-192.848,195.09L-193.597,189.994Z" style="fill:black;"/>
                        </g>
                        <g>
                            <path d="M-192.724,204.1L-122.396,203.829L511.199,203.754C538.399,203.751 563.599,203.847 586.799,204.042C609.998,204.236 621.598,204.499 621.598,204.828L621.599,210.807C621.599,211.103 612.399,211.368 593.999,211.6C575.6,211.833 548,211.952 511.2,211.956L-122.395,212.031L-194.101,211.782L-192.93,206.784Z" style="fill:black;"/>
                        </g>
                        <g>
                            <path d="M-198.12,220.817L-122.605,220.526L510.99,220.451C538.189,220.448 563.389,220.543 586.589,220.738C609.789,220.933 621.389,221.195 621.389,221.525L621.39,227.503C621.39,227.8 612.19,228.065 593.79,228.297C575.39,228.53 547.79,228.649 510.991,228.653L-122.604,228.728C-158.904,228.732 -185.845,228.635 -203.193,228.428L-199.8,223.814Z" style="fill:black;"/>
                        </g>
                        <g>
                            <path d="M-212.515,237.717L-201.798,237.528C-184.198,237.328 -157.798,237.227 -122.598,237.222L510.997,237.148C538.196,237.144 563.396,237.24 586.596,237.435C609.796,237.63 621.396,237.892 621.396,238.222L621.396,244.2C621.397,244.497 612.197,244.761 593.797,244.994C575.397,245.227 547.797,245.345 510.998,245.35L-122.597,245.425C-177.528,245.431 -211.029,245.204 -222.694,244.714C-219.104,242.648 -215.692,240.327 -212.515,237.717Z" style="fill:black;"/>
                        </g>
                    </g>
                </g>
                <path d="M329.508,343.415C332.06,341.957 333.947,340.044 335.169,337.674C336.392,335.305 336.204,332.471 334.606,329.172L297.508,275.047C295.9,272.493 294.168,271.018 292.31,270.622C290.452,270.226 288.171,270.831 285.468,272.436C278.097,277.857 269.996,282.003 261.166,284.872C252.336,287.741 243.004,289.114 233.168,288.989C220.949,288.835 209.727,286.383 199.503,281.633C189.279,276.884 180.493,270.438 173.143,262.297C165.794,254.156 160.101,244.694 156.064,233.912C152.027,223.13 150.086,211.629 150.24,199.41C150.395,187.19 152.626,175.779 156.933,165.177C161.24,154.575 167.17,145.335 174.721,137.456C182.273,129.578 191.219,123.394 201.56,118.904C211.901,114.415 223.181,112.247 235.4,112.402C245.236,112.526 254.605,114.172 263.507,117.34C272.41,120.508 280.477,124.895 287.709,130.501C290.371,132.174 292.598,132.873 294.39,132.597C296.182,132.322 297.987,131.003 299.805,128.642L338.724,74.1366C340.404,70.8789 340.663,68.1249 339.499,65.8745C338.335,63.6242 336.496,61.7379 333.981,60.2157C320.092,50.6504 305.096,43.195 288.992,37.8495C272.889,32.504 255.896,29.7182 238.013,29.4922C222.217,29.2926 207.029,31.1127 192.449,34.9525C177.869,38.7924 164.198,44.3578 151.437,51.6487C138.676,58.9395 127.052,67.6979 116.564,77.9239C106.077,88.1498 97.0278,99.5117 89.4177,112.01C81.8075,124.508 75.8989,137.996 71.6918,152.474C67.4846,166.953 65.2812,182.09 65.0815,197.886C64.8819,213.682 66.702,228.87 70.5419,243.451C74.3818,258.031 79.9467,271.739 87.2366,284.574C94.5265,297.409 103.284,309.108 113.509,319.67C123.734,330.233 135.133,339.282 147.707,346.819C160.28,354.355 173.805,360.264 188.283,364.546C202.761,368.828 217.898,371.068 233.693,371.268C251.576,371.494 268.484,369.211 284.417,364.42C300.351,359.628 315.381,352.627 329.508,343.415Z" style="fill:none;stroke-width:10.06px;stroke:black;"/>
            </g>
            <g>
                <path d="M304.184,357.043C298.199,359.806 291.401,362.325 284.43,364.422C268.496,369.213 251.588,371.496 233.706,371.27C217.91,371.07 202.773,368.83 188.295,364.548C173.818,360.266 160.292,354.357 147.719,346.821C135.146,339.284 123.746,330.235 113.521,319.672C103.296,309.11 94.539,297.411 87.2491,284.576C79.9591,271.741 74.3942,258.033 70.5544,243.453C66.7145,228.872 64.8944,213.684 65.094,197.888C65.2937,182.092 67.4971,166.955 71.7042,152.476C75.9114,137.998 81.82,124.51 89.4301,112.012C97.0403,99.5138 106.089,88.1519 116.577,77.9259C127.065,67.7 138.689,58.9416 151.45,51.6507C164.211,44.3598 177.881,38.7945 192.461,34.9546C207.042,31.1147 222.23,29.2946 238.026,29.4943C255.908,29.7203 272.901,32.5061 289.005,37.8516C294.289,39.6056 299.453,41.5867 304.071,43.7061C280.311,62.2588 260.941,85.9845 247.707,113.45C243.93,112.804 239.716,112.458 235.413,112.404C223.193,112.249 211.913,114.417 201.573,118.906C191.232,123.396 182.286,129.58 174.734,137.458C167.182,145.337 161.253,154.577 156.945,165.179C152.638,175.781 150.407,187.192 150.253,199.412C150.099,211.631 152.04,223.132 156.077,233.914C160.114,244.696 165.807,254.158 173.156,262.299C180.505,270.441 189.292,276.886 199.516,281.635C209.74,286.385 220.961,288.837 233.181,288.991C238.099,289.054 242.891,288.742 248.067,287.959C261.383,315.26 280.797,339.027 304.184,357.043Z" style="fill:none;stroke-width:10.06px;stroke:black;"/>
            </g>
            <g>
                <path d="M304.184,357.043C280.4,338.492 261.01,314.772 248.067,287.958C252.223,287.369 256.764,286.309 261.179,284.874C270.008,282.005 278.109,277.859 285.481,272.438C288.184,270.833 290.464,270.228 292.322,270.624C294.18,271.02 295.913,272.495 297.52,275.049L334.619,329.174C336.216,332.473 336.404,335.307 335.182,337.676C333.959,340.046 332.072,341.959 329.52,343.417C321.574,348.599 313.342,353.081 304.184,357.043Z" style="fill:rgb(0,164,255);stroke-width:10.06px;stroke:black;"/>
            </g>
            <g>
                <path d="M304.065,43.7046C314.824,48.3153 324.656,53.7896 333.987,60.2162C336.502,61.7385 338.341,63.6247 339.505,65.8751C340.669,68.1255 340.411,70.8795 338.73,74.1372L299.811,128.642C297.993,131.004 296.188,132.322 294.396,132.598C292.604,132.873 290.377,132.174 287.715,130.501C280.483,124.895 272.416,120.508 263.513,117.341C258.506,115.559 253.35,114.258 247.7,113.449C260.936,86.0013 280.334,62.0882 304.064,43.7046Z" style="fill:rgb(255,234,0);stroke-width:10.06px;stroke:black;"/>
            </g>
        </g>
    </g>
</svg>
