<?xml version="1.0" standalone="no"?>
<!DOCTYPE svg PUBLIC "-//W3C//DTD SVG 1.1//EN" "http://www.w3.org/Graphics/SVG/1.1/DTD/svg11.dtd">
<svg width="400px" height="200px" version="1.1" xmlns="http://www.w3.org/2000/svg" xmlns:xlink="http://www.w3.org/1999/xlink" xml:space="preserve" style="fill-rule:evenodd;clip-rule:evenodd;stroke-linejoin:round;stroke-miterlimit:1.41421;">
    <g>
        <g id="Layer1">
            <g>
                <path d="M306.825,28.599C346.22,28.5884 378.164,60.547 378.175,99.9807C378.186,139.414 346.259,171.39 306.864,171.401C267.469,171.412 235.524,139.453 235.513,100.019C235.503,60.5856 267.43,28.6097 306.825,28.599Z" style="fill:none;stroke-width:3.33px;stroke:black;"/>
                <path d="M272.13,151.374C273.047,150.851 273.724,150.164 274.163,149.313C274.602,148.462 274.535,147.445 273.961,146.26L260.641,126.827C260.064,125.91 259.442,125.381 258.775,125.238C258.108,125.096 257.289,125.313 256.318,125.89C253.672,127.836 250.763,129.325 247.593,130.355C244.423,131.385 241.072,131.878 237.541,131.833C233.153,131.778 229.124,130.897 225.453,129.192C221.782,127.487 218.628,125.172 215.989,122.249C213.35,119.326 211.306,115.929 209.857,112.058C208.407,108.187 207.71,104.057 207.766,99.67C207.821,95.2827 208.622,91.1857 210.169,87.379C211.715,83.5724 213.844,80.2548 216.555,77.4261C219.267,74.5974 222.479,72.3771 226.192,70.7651C229.904,69.1531 233.955,68.3749 238.342,68.4303C241.873,68.475 245.237,69.066 248.433,70.2034C251.63,71.3408 254.526,72.9159 257.123,74.9287C258.079,75.5294 258.878,75.7804 259.522,75.6815C260.165,75.5826 260.813,75.1091 261.466,74.2612L275.439,54.6915C276.043,53.5218 276.136,52.533 275.718,51.7251C275.3,50.9171 274.64,50.2398 273.737,49.6933C268.75,46.2589 263.366,43.5821 257.584,41.6628C251.802,39.7436 245.701,38.7434 239.28,38.6622C233.609,38.5905 228.155,39.244 222.92,40.6227C217.685,42.0014 212.777,43.9996 208.195,46.6173C203.614,49.2351 199.44,52.3797 195.675,56.0513C191.909,59.7228 188.66,63.8023 185.928,68.2896C183.195,72.7769 181.074,77.6198 179.563,82.8182C178.053,88.0166 177.262,93.4516 177.19,99.123C177.118,104.795 177.772,110.248 179.15,115.483C180.529,120.718 182.527,125.639 185.145,130.248C187.762,134.856 190.906,139.057 194.578,142.849C198.249,146.641 202.342,149.89 206.856,152.596C211.37,155.302 216.227,157.424 221.425,158.961C226.623,160.498 232.058,161.303 237.729,161.375C244.15,161.456 250.22,160.636 255.941,158.916C261.662,157.195 267.058,154.682 272.13,151.374Z" style="fill:none;stroke-width:3.33px;stroke:black;"/>
                <path d="M262.993,43.7649C274.95,34.284 290.224,28.6035 306.825,28.599C346.22,28.5884 378.164,60.547 378.175,99.9807C378.186,139.414 346.259,171.39 306.864,171.401C290.263,171.405 274.986,165.733 263.034,156.267C266.322,154.844 269.277,153.235 272.13,151.374C273.047,150.851 273.724,150.164 274.163,149.313C274.602,148.462 274.535,147.445 273.961,146.26L260.641,126.827C260.064,125.91 259.442,125.381 258.775,125.238C258.108,125.096 257.289,125.313 256.318,125.89C253.672,127.836 250.763,129.325 247.593,130.355C246.008,130.87 244.377,131.251 242.885,131.462C238.139,121.992 235.517,111.312 235.513,100.019C235.51,88.8239 238.082,78.2296 242.756,68.806C244.784,69.0967 246.635,69.5636 248.433,70.2034C251.63,71.3408 254.526,72.9159 257.123,74.9287C258.079,75.5294 258.878,75.7804 259.522,75.6815C260.165,75.5826 260.813,75.1091 261.466,74.2612L275.439,54.6915C276.043,53.5218 276.136,52.533 275.718,51.7251C275.3,50.9171 274.64,50.2398 273.737,49.6933C270.386,47.3858 266.856,45.4203 262.993,43.7649Z" style="fill:none;stroke-width:3.33px;stroke:black;"/>
                <path d="M263.034,156.267C260.885,157.259 258.444,158.163 255.941,158.916C250.22,160.636 244.15,161.456 237.729,161.375C232.058,161.303 226.623,160.498 221.425,158.961C216.227,157.424 211.37,155.302 206.856,152.596C202.342,149.89 198.249,146.641 194.578,142.849C190.906,139.057 187.762,134.856 185.145,130.248C182.527,125.639 180.529,120.718 179.15,115.483C177.772,110.248 177.118,104.795 177.19,99.123C177.262,93.4516 178.053,88.0166 179.563,82.8182C181.074,77.6198 183.195,72.7769 185.928,68.2896C188.66,63.8023 191.909,59.7228 195.675,56.0513C199.44,52.3797 203.614,49.2351 208.195,46.6173C212.777,43.9996 217.685,42.0014 222.92,40.6227C228.155,39.244 233.609,38.5905 239.28,38.6622C245.701,38.7434 251.802,39.7436 257.584,41.6628C259.481,42.2926 261.335,43.0039 262.993,43.7649C254.462,50.4261 247.508,58.9447 242.756,68.806C241.4,68.574 239.887,68.4498 238.342,68.4303C233.955,68.3749 229.904,69.1531 226.192,70.7651C222.479,72.3771 219.267,74.5974 216.555,77.4261C213.844,80.2548 211.715,83.5724 210.169,87.379C208.622,91.1857 207.821,95.2827 207.766,99.67C207.71,104.057 208.407,108.187 209.857,112.058C211.306,115.929 213.35,119.326 215.989,122.249C218.628,125.172 221.782,127.487 225.453,129.192C229.124,130.897 233.153,131.778 237.541,131.833C239.306,131.855 241.027,131.743 242.885,131.462C247.666,141.264 254.637,149.798 263.034,156.267Z" style="fill:none;stroke-width:3.33px;stroke:black;"/>
                <path d="M263.034,156.267C254.494,149.606 247.532,141.089 242.885,131.462C244.377,131.251 246.008,130.87 247.593,130.355C250.763,129.325 253.672,127.836 256.318,125.89C257.289,125.313 258.108,125.096 258.775,125.238C259.442,125.381 260.064,125.91 260.641,126.827L273.961,146.26C274.535,147.445 274.602,148.462 274.163,149.313C273.724,150.164 273.047,150.851 272.13,151.374C269.277,153.235 266.322,154.844 263.034,156.267Z" style="fill:rgb(0,164,255);stroke-width:3.33px;stroke:black;"/>
                <path d="M262.993,43.7649C266.856,45.4203 270.386,47.3858 273.737,49.6933C274.64,50.2398 275.3,50.9171 275.718,51.7251C276.136,52.533 276.043,53.5218 275.439,54.6915L261.466,74.2612C260.813,75.1091 260.165,75.5826 259.522,75.6815C258.878,75.7804 258.079,75.5294 257.123,74.9287C254.526,72.9159 251.63,71.3408 248.433,70.2034C246.635,69.5636 244.784,69.0967 242.756,68.806C247.508,58.9513 254.473,50.3654 262.993,43.7649Z" style="fill:rgb(255,234,0);stroke-width:3.33px;stroke:black;"/>
                <path d="M76.0164,83.4938L81.4064,83.399C87.7255,83.3273 97.2042,83.2907 109.842,83.2892L337.331,83.2623C347.096,83.2611 356.144,83.2956 364.474,83.3655C372.804,83.4355 376.969,83.5296 376.969,83.6479L376.969,85.7945C376.969,85.901 373.666,85.996 367.059,86.0795C360.453,86.1631 350.544,86.2057 337.331,86.2072L109.843,86.2341C95.3286,86.2358 84.9815,86.1922 78.9599,86.0918L77.7543,84.8371Z" style="fill:black;"/>
                <path d="M81.5241,89.3627L109.843,89.2534L337.331,89.2265C347.097,89.2253 356.145,89.2598 364.475,89.3297C372.805,89.3997 376.969,89.4938 376.969,89.6121L376.97,91.7587C376.97,91.8652 373.667,91.9602 367.06,92.0437C360.454,92.1273 350.544,92.1699 337.332,92.1714L109.843,92.1983L82.9577,92.105L81.7963,89.7469Z" style="fill:black;"/>
                <path d="M84.0996,95.3609L109.846,95.2615L337.334,95.2346C347.1,95.2335 356.148,95.2679 364.477,95.3378C372.807,95.4078 376.972,95.5019 376.972,95.6202L376.972,97.7668C376.972,97.8733 373.669,97.9683 367.063,98.0518C360.456,98.1354 350.547,98.178 337.334,98.1795L109.846,98.2064L84.5952,98.1188L84.3264,96.289Z" style="fill:black;"/>
                <path d="M84.5955,101.354L109.846,101.256L337.335,101.229C347.1,101.228 356.148,101.263 364.478,101.333C372.808,101.403 376.973,101.497 376.973,101.615L376.973,103.762C376.973,103.868 373.67,103.963 367.063,104.047C360.457,104.13 350.548,104.173 337.335,104.174L109.847,104.201L84.1011,104.112L84.5214,102.318Z" style="fill:black;"/>
                <path d="M82.7351,107.356L109.848,107.251L337.336,107.224C347.102,107.223 356.15,107.258 364.48,107.328C372.809,107.398 376.974,107.492 376.974,107.61L376.975,109.757C376.975,109.863 373.671,109.958 367.065,110.042C360.459,110.125 350.549,110.168 337.336,110.169L109.848,110.196C96.8152,110.198 87.1421,110.163 80.9135,110.089L82.1316,108.432Z" style="fill:black;"/>
                <path d="M77.5656,113.423L81.4136,113.356C87.7327,113.284 97.2114,113.247 109.85,113.246L337.338,113.219C347.104,113.218 356.151,113.252 364.481,113.322C372.811,113.392 376.976,113.486 376.976,113.605L376.976,115.751C376.976,115.858 373.673,115.953 367.067,116.036C360.46,116.12 350.551,116.163 337.338,116.164L109.85,116.191C90.1274,116.193 78.0994,116.112 73.9108,115.936C75.1999,115.194 76.4251,114.361 77.5656,113.423Z" style="fill:black;"/>
            </g>
            <g>
                <g>
                    <path d="M87.5506,86.3699C87.5505,86.0879 87.6243,85.8629 87.7719,85.695C87.9196,85.5271 88.1412,85.4431 88.4366,85.4431L101.308,85.4396C102.235,85.4393 103.108,85.5667 103.927,85.8216C104.746,86.0765 105.498,86.4288 106.183,86.8785C106.868,87.3282 107.486,87.8652 108.037,88.4895C108.588,89.1138 109.055,89.7885 109.438,90.5135C109.821,91.2386 110.113,92.0006 110.314,92.7996C110.516,93.5986 110.617,94.4076 110.617,95.2268C110.618,96.4354 110.4,97.6172 109.964,98.7722C109.527,99.9272 108.907,100.955 108.101,101.855C107.296,102.755 106.329,103.483 105.201,104.041C104.073,104.599 102.824,104.884 101.455,104.898L95.3511,104.9L95.3537,114.488C95.3539,115.066 95.0451,115.354 94.4273,115.355L88.4447,115.356C88.1761,115.356 87.9613,115.286 87.8001,115.145C87.6389,115.004 87.5582,114.786 87.5582,114.49L87.5506,86.3699ZM102.721,95.1887C102.721,94.7858 102.65,94.3829 102.509,93.9801C102.368,93.5773 102.163,93.2181 101.894,92.9026C101.626,92.5871 101.3,92.3287 100.917,92.1273C100.535,91.926 100.101,91.8254 99.618,91.8255L95.3476,91.8267L95.3494,98.5546L99.6198,98.5535C100.103,98.5533 100.54,98.4558 100.929,98.261C101.318,98.0662 101.644,97.8143 101.906,97.5054C102.168,97.1964 102.369,96.8405 102.51,96.4376C102.651,96.0347 102.721,95.6184 102.721,95.1887Z" style="fill:black;fill-rule:nonzero;"/>
                    <path d="M115.026,86.3625C115.026,86.0805 115.1,85.8555 115.248,85.6876C115.395,85.5197 115.617,85.4357 115.912,85.4356L128.925,85.4321C130.308,85.4317 131.604,85.6899 132.813,86.2066C134.022,86.7233 135.076,87.4246 135.976,88.3107C136.876,89.1968 137.585,90.234 138.102,91.4223C138.619,92.6106 138.878,93.8763 138.879,95.2192C138.879,96.1323 138.755,97.0019 138.507,97.8278C138.258,98.6538 137.913,99.426 137.47,100.145C137.027,100.863 136.5,101.515 135.889,102.099C135.278,102.683 134.61,103.184 133.885,103.6L139.065,113.348C139.159,113.536 139.28,113.758 139.428,114.013C139.575,114.268 139.649,114.49 139.649,114.678C139.649,114.892 139.579,115.057 139.438,115.171C139.297,115.285 139.106,115.342 138.864,115.343L131.955,115.344C131.726,115.344 131.522,115.277 131.34,115.143C131.159,115.009 131.041,114.828 130.988,114.599L126.09,105.395L122.827,105.396L122.829,114.481C122.83,115.058 122.521,115.347 121.903,115.347L115.92,115.349C115.652,115.349 115.437,115.278 115.276,115.137C115.115,114.996 115.034,114.778 115.034,114.483L115.026,86.3625ZM130.801,95.3019C130.801,94.899 130.727,94.4962 130.579,94.0934C130.431,93.6905 130.223,93.3213 129.954,92.9856C129.686,92.65 129.363,92.3681 128.987,92.1399C128.611,91.9117 128.195,91.7641 127.738,91.6971C127.362,91.6703 127.01,91.6469 126.681,91.6268C126.352,91.6068 125.992,91.5968 125.603,91.5969L122.823,91.5977L122.825,98.9903L126.532,98.9893C126.773,98.9893 126.988,98.9825 127.176,98.969C127.364,98.9555 127.572,98.9353 127.801,98.9084C128.271,98.8546 128.694,98.7168 129.07,98.4951C129.446,98.2734 129.761,97.9981 130.016,97.669C130.271,97.3399 130.466,96.9706 130.6,96.5609C130.734,96.1513 130.801,95.7316 130.801,95.3019Z" style="fill:black;fill-rule:nonzero;"/>
                    <path d="M149.717,100.393C149.717,101.508 149.906,102.548 150.282,103.515C150.658,104.482 151.186,105.325 151.864,106.043C152.542,106.761 153.345,107.325 154.272,107.734C155.198,108.144 156.219,108.348 157.334,108.348C158.448,108.347 159.472,108.142 160.405,107.733C161.339,107.323 162.144,106.758 162.822,106.04C163.5,105.321 164.027,104.478 164.403,103.511C164.778,102.544 164.966,101.504 164.966,100.389C164.966,99.2878 164.777,98.2505 164.401,97.277C164.025,96.3035 163.497,95.4542 162.819,94.7292C162.141,94.0042 161.335,93.4337 160.401,93.0177C159.468,92.6016 158.444,92.3938 157.329,92.3941C156.215,92.3944 155.194,92.6028 154.268,93.0193C153.341,93.4359 152.539,94.0068 151.861,94.7322C151.183,95.4575 150.656,96.3071 150.28,97.2808C149.905,98.2545 149.717,99.2919 149.717,100.393ZM141.942,100.415C141.941,98.9919 142.122,97.6254 142.485,96.316C142.847,95.0066 143.363,93.7777 144.035,92.6293C144.706,91.481 145.508,90.4366 146.441,89.4964C147.374,88.5561 148.411,87.7534 149.552,87.0884C150.694,86.4233 151.919,85.906 153.228,85.5363C154.537,85.1667 155.904,84.9816 157.327,84.9813C158.737,84.9809 160.1,85.1652 161.417,85.5341C162.733,85.903 163.962,86.4197 165.103,87.0842C166.245,87.7486 167.286,88.5507 168.226,89.4905C169.166,90.4302 169.969,91.4741 170.634,92.6221C171.299,93.7701 171.817,94.9987 172.186,96.308C172.556,97.6172 172.741,98.9835 172.741,100.407C172.742,101.83 172.557,103.197 172.188,104.506C171.819,105.816 171.303,107.038 170.638,108.173C169.974,109.308 169.172,110.342 168.232,111.276C167.292,112.209 166.252,113.012 165.11,113.684C163.969,114.355 162.741,114.873 161.425,115.236C160.109,115.599 158.746,115.78 157.336,115.781C155.912,115.781 154.546,115.6 153.236,115.238C151.927,114.876 150.701,114.359 149.56,113.688C148.418,113.017 147.38,112.215 146.447,111.282C145.513,110.348 144.711,109.315 144.039,108.18C143.367,107.046 142.85,105.824 142.487,104.514C142.124,103.205 141.942,101.839 141.942,100.415Z" style="fill:black;fill-rule:nonzero;"/>
                    <path d="M181.48,86.2236C181.48,85.7267 181.741,85.4581 182.265,85.4177L188.207,85.4161C188.933,85.4159 189.295,85.7649 189.295,86.4632L189.303,114.06C189.303,115.389 189.038,116.635 188.508,117.797C187.978,118.958 187.263,119.972 186.364,120.839C185.464,121.705 184.42,122.387 183.232,122.884C182.044,123.382 180.791,123.63 179.475,123.631C178.697,123.631 177.931,123.544 177.179,123.369C176.427,123.195 175.712,122.937 175.034,122.594C174.355,122.252 173.724,121.829 173.14,121.326C172.555,120.822 172.042,120.242 171.598,119.584C171.558,119.571 171.538,119.463 171.538,119.262C171.538,118.912 171.645,118.657 171.86,118.496L175.364,115.212C175.471,115.118 175.585,115.04 175.706,114.98C175.827,114.92 175.941,114.889 176.049,114.889C176.25,114.889 176.441,114.963 176.623,115.111C176.804,115.258 177.006,115.423 177.227,115.604C177.449,115.785 177.707,115.95 178.003,116.097C178.298,116.245 178.654,116.319 179.071,116.319C179.379,116.319 179.682,116.258 179.977,116.137C180.272,116.016 180.531,115.855 180.752,115.653C180.974,115.452 181.152,115.214 181.286,114.938C181.42,114.663 181.487,114.371 181.487,114.062L181.48,86.2236Z" style="fill:black;fill-rule:nonzero;"/>
                    <path d="M195.862,86.3406C195.862,86.0586 195.939,85.8336 196.094,85.6657C196.248,85.4978 196.466,85.4138 196.748,85.4137L216.751,85.4083C217.046,85.4083 217.274,85.4955 217.436,85.67C217.597,85.8445 217.677,86.0795 217.678,86.375L217.679,91.3706C217.679,91.5989 217.598,91.8171 217.437,92.0253C217.276,92.2335 217.041,92.3376 216.732,92.3377L203.679,92.3412L203.681,97.3167L213.753,97.314C214.008,97.3139 214.219,97.3743 214.387,97.4951C214.555,97.6159 214.639,97.8173 214.639,98.0993L214.64,102.45C214.64,102.638 214.566,102.82 214.419,102.994C214.271,103.169 214.056,103.256 213.774,103.256L203.682,103.259L203.684,108.396L217.22,108.392C217.825,108.392 218.127,108.701 218.127,109.318L218.128,114.394C218.128,114.529 218.075,114.65 217.967,114.757C217.914,115.133 217.638,115.321 217.142,115.321L196.756,115.327C196.488,115.327 196.273,115.256 196.112,115.116C195.95,114.975 195.87,114.756 195.87,114.461L195.862,86.3406Z" style="fill:black;fill-rule:nonzero;"/>
                    <path d="M245.879,87.5759C246.107,87.7102 246.275,87.8847 246.383,88.0995C246.49,88.3144 246.47,88.5695 246.322,88.865L242.919,93.7004C242.772,93.9287 242.614,94.0597 242.446,94.0933C242.278,94.1269 242.073,94.0699 241.832,93.9222C241.174,93.4256 240.448,93.043 239.656,92.7747C238.863,92.5063 238.024,92.3722 237.138,92.3725C236.037,92.3728 235.023,92.5812 234.096,92.9977C233.17,93.4143 232.371,93.9852 231.7,94.7106C231.028,95.4359 230.505,96.2821 230.129,97.2491C229.753,98.2161 229.566,99.2502 229.566,100.351C229.566,101.453 229.755,102.483 230.131,103.443C230.507,104.403 231.031,105.242 231.703,105.961C232.374,106.679 233.174,107.246 234.1,107.662C235.027,108.078 236.041,108.286 237.142,108.286C238.028,108.286 238.874,108.148 239.68,107.872C240.486,107.597 241.218,107.21 241.875,106.713C242.117,106.566 242.319,106.505 242.48,106.532C242.641,106.559 242.802,106.68 242.963,106.894L246.409,111.849C246.557,112.144 246.577,112.393 246.47,112.594C246.362,112.795 246.195,112.963 245.966,113.098C244.704,113.944 243.345,114.599 241.888,115.063C240.431,115.527 238.897,115.759 237.285,115.759C235.862,115.759 234.495,115.578 233.186,115.216C231.876,114.854 230.651,114.337 229.509,113.666C228.368,112.995 227.33,112.193 226.396,111.26C225.463,110.327 224.66,109.293 223.988,108.158C223.317,107.024 222.799,105.802 222.436,104.493C222.073,103.184 221.892,101.817 221.891,100.394C221.891,98.9702 222.072,97.6038 222.434,96.2944C222.796,94.9849 223.313,93.756 223.984,92.6077C224.655,91.4593 225.457,90.415 226.39,89.4747C227.324,88.5344 228.361,87.7318 229.502,87.0667C230.643,86.4017 231.869,85.8843 233.178,85.5147C234.487,85.145 235.853,84.96 237.277,84.9596C238.888,84.9592 240.409,85.1837 241.84,85.6332C243.27,86.0827 244.616,86.7303 245.879,87.5759Z" style="fill:black;fill-rule:nonzero;"/>
                    <path d="M249.806,86.2857C249.806,86.0171 249.897,85.8022 250.078,85.641C250.259,85.4798 250.484,85.3992 250.753,85.3991L272.447,85.3933C272.689,85.3932 272.904,85.467 273.092,85.6147C273.28,85.7623 273.388,85.9839 273.415,86.2793L273.416,91.295C273.416,91.5368 273.332,91.7684 273.164,91.9901C272.997,92.2117 272.758,92.3225 272.449,92.3226L265.5,92.3245L265.506,114.361C265.506,114.603 265.419,114.821 265.244,115.016C265.07,115.211 264.841,115.308 264.559,115.308L258.637,115.31C258.409,115.31 258.194,115.22 257.992,115.038C257.791,114.857 257.69,114.632 257.69,114.364L257.684,92.3266L250.755,92.3285C250.486,92.3286 250.261,92.2413 250.08,92.0668C249.899,91.8923 249.808,91.6372 249.808,91.3014L249.806,86.2857Z" style="fill:black;fill-rule:nonzero;"/>
                </g>
            </g>
            <path d="M73.9108,115.936C68.7548,118.937 62.7228,120.582 57.2828,120.585L40.6816,120.594C28.4655,120.601 18.8582,110.699 18.5502,98.4871C18.348,90.4674 19.926,80.0859 29.5019,80.0418C38.6792,79.9996 41.496,87.7536 49.2569,87.351C59.7739,86.8054 60.9908,79.3636 71.1709,81.219C72.6469,81.488 74.3618,82.2667 76.0164,83.4938C73.354,83.5355 71.9278,83.6045 71.9278,83.6839L71.928,85.8305C71.928,85.9464 74.2192,86.0372 78.9599,86.0918L79.8982,87.0683L81.5241,89.3627L81.4071,89.3632C75.088,89.4349 71.9285,89.5299 71.9285,89.6481L71.9287,91.7947C71.9288,91.9424 75.6547,92.0496 82.9577,92.105C83.4299,93.1151 83.8209,94.2016 84.0996,95.3609L81.4097,95.3713C75.0906,95.443 71.931,95.538 71.931,95.6562L71.9313,97.8028C71.9313,97.959 76.0985,98.0699 84.5952,98.1188C84.6641,98.8393 84.6936,99.4513 84.6939,100.074L84.5955,101.354L81.4104,101.366C75.0913,101.438 71.9317,101.533 71.9317,101.651L71.932,103.798C71.932,103.951 75.9308,104.06 84.1011,104.112C83.7492,105.302 83.2548,106.441 82.7351,107.356L81.412,107.361C75.0929,107.433 71.9333,107.528 71.9334,107.646L71.9336,109.793C71.9336,109.924 74.8988,110.024 80.9135,110.089C79.9072,111.317 78.7437,112.453 77.5656,113.423C73.8586,113.47 71.935,113.548 71.935,113.641L71.9352,115.787Z" style="fill:none;stroke-width:3.33px;stroke-linecap:round;stroke:black;"/>
            <path d="M78.9599,86.0918C74.2192,86.0372 71.928,85.9464 71.928,85.8305L71.9278,83.6839C71.9278,83.6045 73.354,83.5355 76.0164,83.4938L77.7543,84.8371Z" style="fill:none;stroke-width:3.33px;stroke-linecap:round;stroke:black;"/>
            <path d="M82.9577,92.105C75.6547,92.0496 71.9288,91.9424 71.9287,91.7947L71.9285,89.6481C71.9285,89.5299 75.088,89.4349 81.4071,89.3632L81.5241,89.3627L81.7963,89.7469Z" style="fill:none;stroke-width:3.33px;stroke-linecap:round;stroke:black;"/>
            <path d="M84.5952,98.1188C76.0985,98.0699 71.9313,97.959 71.9313,97.8028L71.931,95.6562C71.931,95.538 75.0906,95.443 81.4097,95.3713L84.0996,95.3609L84.3264,96.289Z" style="fill:none;stroke-width:3.33px;stroke-linecap:round;stroke:black;"/>
            <path d="M84.1011,104.112C75.9308,104.06 71.932,103.951 71.932,103.798L71.9317,101.651C71.9317,101.533 75.0913,101.438 81.4104,101.366L84.5955,101.354L84.5214,102.318Z" style="fill:none;stroke-width:3.33px;stroke-linecap:round;stroke:black;"/>
            <path d="M80.9135,110.089C74.8988,110.024 71.9336,109.924 71.9336,109.793L71.9334,107.646C71.9333,107.528 75.0929,107.433 81.412,107.361L82.7351,107.356L82.1316,108.432Z" style="fill:none;stroke-width:3.33px;stroke-linecap:round;stroke:black;"/>
            <path d="M73.9108,115.936L71.9352,115.787L71.935,113.641C71.935,113.548 73.8586,113.47 77.5656,113.423C76.3854,114.38 75.1064,115.251 73.9108,115.936Z" style="fill:none;stroke-width:3.33px;stroke-linecap:round;stroke:black;"/>
        </g>
    </g>
</svg>
