<?xml version="1.0" standalone="no"?>
<!DOCTYPE svg PUBLIC "-//W3C//DTD SVG 1.1//EN" "http://www.w3.org/Graphics/SVG/1.1/DTD/svg11.dtd">
<svg width="400px" height="200px" version="1.1" xmlns="http://www.w3.org/2000/svg" xmlns:xlink="http://www.w3.org/1999/xlink" xml:space="preserve" style="fill-rule:evenodd;clip-rule:evenodd;stroke-linejoin:round;stroke-miterlimit:1.41421;">
    <g>
        <g id="Layer1">
            <g>
                <g>
                    <path d="M306.825,28.599C346.22,28.5884 378.164,60.547 378.175,99.9807C378.186,139.414 346.259,171.39 306.864,171.401C267.469,171.412 235.524,139.453 235.513,100.019C235.503,60.5856 267.43,28.6097 306.825,28.599Z" style="fill:none;stroke-width:3.33px;stroke:black;"/>
                </g>
                <g>
                    <path d="M272.13,151.374C273.047,150.851 273.724,150.164 274.163,149.313C274.602,148.462 274.535,147.445 273.961,146.26L260.641,126.827C260.064,125.91 259.442,125.381 258.775,125.238C258.108,125.096 257.289,125.313 256.318,125.89C253.672,127.836 250.763,129.325 247.593,130.355C244.423,131.385 241.072,131.878 237.541,131.833C233.153,131.778 229.124,130.897 225.453,129.192C221.782,127.487 218.628,125.172 215.989,122.249C213.35,119.326 211.306,115.929 209.857,112.058C208.407,108.187 207.71,104.057 207.766,99.67C207.821,95.2827 208.622,91.1857 210.169,87.379C211.715,83.5724 213.844,80.2548 216.555,77.4261C219.267,74.5974 222.479,72.3771 226.192,70.7651C229.904,69.1531 233.955,68.3749 238.342,68.4303C241.873,68.475 245.237,69.066 248.433,70.2034C251.63,71.3408 254.526,72.9159 257.123,74.9287C258.079,75.5294 258.878,75.7804 259.522,75.6815C260.165,75.5826 260.813,75.1091 261.466,74.2612L275.439,54.6915C276.043,53.5218 276.136,52.533 275.718,51.7251C275.3,50.9171 274.64,50.2398 273.737,49.6933C268.75,46.2589 263.366,43.5821 257.584,41.6628C251.802,39.7436 245.701,38.7434 239.28,38.6622C233.609,38.5905 228.155,39.244 222.92,40.6227C217.685,42.0014 212.777,43.9996 208.195,46.6173C203.614,49.2351 199.44,52.3797 195.675,56.0513C191.909,59.7228 188.66,63.8023 185.928,68.2896C183.195,72.7769 181.074,77.6198 179.563,82.8182C178.053,88.0166 177.262,93.4516 177.19,99.123C177.118,104.795 177.772,110.248 179.15,115.483C180.529,120.718 182.527,125.639 185.145,130.248C187.762,134.856 190.906,139.057 194.578,142.849C198.249,146.641 202.342,149.89 206.856,152.596C211.37,155.302 216.227,157.424 221.425,158.961C226.623,160.498 232.058,161.303 237.729,161.375C244.15,161.456 250.22,160.636 255.941,158.916C261.662,157.195 267.058,154.682 272.13,151.374Z" style="fill:none;stroke-width:3.33px;stroke:black;"/>
                </g>
                <g>
                    <path d="M262.993,43.7649C274.95,34.284 290.224,28.6035 306.825,28.599C346.22,28.5884 378.164,60.547 378.175,99.9807C378.186,139.414 346.259,171.39 306.864,171.401C290.263,171.405 274.986,165.733 263.034,156.267C266.322,154.844 269.277,153.235 272.13,151.374C273.047,150.851 273.724,150.164 274.163,149.313C274.602,148.462 274.535,147.445 273.961,146.26L260.641,126.827C260.064,125.91 259.442,125.381 258.775,125.238C258.108,125.096 257.289,125.313 256.318,125.89C253.672,127.836 250.763,129.325 247.593,130.355C246.008,130.87 244.377,131.251 242.885,131.462C238.139,121.992 235.517,111.312 235.513,100.019C235.51,88.8239 238.082,78.2296 242.756,68.806C244.784,69.0967 246.635,69.5636 248.433,70.2034C251.63,71.3408 254.526,72.9159 257.123,74.9287C258.079,75.5294 258.878,75.7804 259.522,75.6815C260.165,75.5826 260.813,75.1091 261.466,74.2612L275.439,54.6915C276.043,53.5218 276.136,52.533 275.718,51.7251C275.3,50.9171 274.64,50.2398 273.737,49.6933C270.386,47.3858 266.856,45.4203 262.993,43.7649Z" style="fill:none;stroke-width:3.33px;stroke:black;"/>
                </g>
                <g>
                    <path d="M263.034,156.267C260.885,157.259 258.444,158.163 255.941,158.916C250.22,160.636 244.15,161.456 237.729,161.375C232.058,161.303 226.623,160.498 221.425,158.961C216.227,157.424 211.37,155.302 206.856,152.596C202.342,149.89 198.249,146.641 194.578,142.849C190.906,139.057 187.762,134.856 185.145,130.248C182.527,125.639 180.529,120.718 179.15,115.483C177.772,110.248 177.118,104.795 177.19,99.123C177.262,93.4516 178.053,88.0166 179.563,82.8182C181.074,77.6198 183.195,72.7769 185.928,68.2896C188.66,63.8023 191.909,59.7228 195.675,56.0513C199.44,52.3797 203.614,49.2351 208.195,46.6173C212.777,43.9996 217.685,42.0014 222.92,40.6227C228.155,39.244 233.609,38.5905 239.28,38.6622C245.701,38.7434 251.802,39.7436 257.584,41.6628C259.481,42.2926 261.335,43.0039 262.993,43.7649C254.462,50.4261 247.508,58.9447 242.756,68.806C241.4,68.574 239.887,68.4498 238.342,68.4303C233.955,68.3749 229.904,69.1531 226.192,70.7651C222.479,72.3771 219.267,74.5974 216.555,77.4261C213.844,80.2548 211.715,83.5724 210.169,87.379C208.622,91.1857 207.821,95.2827 207.766,99.67C207.71,104.057 208.407,108.187 209.857,112.058C211.306,115.929 213.35,119.326 215.989,122.249C218.628,125.172 221.782,127.487 225.453,129.192C229.124,130.897 233.153,131.778 237.541,131.833C239.306,131.855 241.027,131.743 242.885,131.462C247.666,141.264 254.637,149.798 263.034,156.267Z" style="fill:none;stroke-width:3.33px;stroke:black;"/>
                </g>
                <g>
                    <path d="M263.034,156.267C254.494,149.606 247.532,141.089 242.885,131.462C244.377,131.251 246.008,130.87 247.593,130.355C250.763,129.325 253.672,127.836 256.318,125.89C257.289,125.313 258.108,125.096 258.775,125.238C259.442,125.381 260.064,125.91 260.641,126.827L273.961,146.26C274.535,147.445 274.602,148.462 274.163,149.313C273.724,150.164 273.047,150.851 272.13,151.374C269.277,153.235 266.322,154.844 263.034,156.267Z" style="fill:rgb(0,164,255);stroke-width:3.33px;stroke:black;"/>
                </g>
                <g>
                    <path d="M262.993,43.7649C266.856,45.4203 270.386,47.3858 273.737,49.6933C274.64,50.2398 275.3,50.9171 275.718,51.7251C276.136,52.533 276.043,53.5218 275.439,54.6915L261.466,74.2612C260.813,75.1091 260.165,75.5826 259.522,75.6815C258.878,75.7804 258.079,75.5294 257.123,74.9287C254.526,72.9159 251.63,71.3408 248.433,70.2034C246.635,69.5636 244.784,69.0967 242.756,68.806C247.508,58.9513 254.473,50.3654 262.993,43.7649Z" style="fill:rgb(255,234,0);stroke-width:3.33px;stroke:black;"/>
                </g>
                <g>
                    <path d="M76.0164,83.4938L81.4064,83.399C87.7255,83.3273 97.2042,83.2907 109.842,83.2892L337.331,83.2623C347.096,83.2611 356.144,83.2956 364.474,83.3655C372.804,83.4355 376.969,83.5296 376.969,83.6479L376.969,85.7945C376.969,85.901 373.666,85.996 367.059,86.0795C360.453,86.1631 350.544,86.2057 337.331,86.2072L109.843,86.2341C95.3286,86.2358 84.9815,86.1922 78.9599,86.0918L77.7543,84.8371L76.0164,83.4938Z" style="fill:black;"/>
                </g>
                <g>
                    <path d="M81.5241,89.3627L109.843,89.2534L337.331,89.2265C347.097,89.2253 356.145,89.2598 364.475,89.3297C372.805,89.3997 376.969,89.4938 376.969,89.6121L376.97,91.7587C376.97,91.8652 373.667,91.9602 367.06,92.0437C360.454,92.1273 350.544,92.1699 337.332,92.1714L109.843,92.1983L82.9577,92.105L81.7963,89.7469L81.5241,89.3627Z" style="fill:black;"/>
                </g>
                <g>
                    <path d="M84.0996,95.3609L109.846,95.2615L337.334,95.2346C347.1,95.2335 356.148,95.2679 364.477,95.3378C372.807,95.4078 376.972,95.5019 376.972,95.6202L376.972,97.7668C376.972,97.8733 373.669,97.9683 367.063,98.0518C360.456,98.1354 350.547,98.178 337.334,98.1795L109.846,98.2064L84.5952,98.1188L84.3264,96.289L84.0996,95.3609Z" style="fill:black;"/>
                </g>
                <g>
                    <path d="M84.5955,101.354L109.846,101.256L337.335,101.229C347.1,101.228 356.148,101.263 364.478,101.333C372.808,101.403 376.973,101.497 376.973,101.615L376.973,103.762C376.973,103.868 373.67,103.963 367.063,104.047C360.457,104.13 350.548,104.173 337.335,104.174L109.847,104.201L84.1011,104.112L84.5214,102.318L84.5955,101.354Z" style="fill:black;"/>
                </g>
                <g>
                    <path d="M82.7351,107.356L109.848,107.251L337.336,107.224C347.102,107.223 356.15,107.258 364.48,107.328C372.809,107.398 376.974,107.492 376.974,107.61L376.975,109.757C376.975,109.863 373.671,109.958 367.065,110.042C360.459,110.125 350.549,110.168 337.336,110.169L109.848,110.196C96.8152,110.198 87.1421,110.163 80.9135,110.089L82.1316,108.432L82.7351,107.356Z" style="fill:black;"/>
                </g>
                <g>
                    <path d="M77.5656,113.423L81.4136,113.356C87.7327,113.284 97.2114,113.247 109.85,113.246L337.338,113.219C347.104,113.218 356.151,113.252 364.481,113.322C372.811,113.392 376.976,113.486 376.976,113.605L376.976,115.751C376.976,115.858 373.673,115.953 367.067,116.036C360.46,116.12 350.551,116.163 337.338,116.164L109.85,116.191C90.1274,116.193 78.0994,116.112 73.9108,115.936C75.1999,115.194 76.4251,114.361 77.5656,113.423Z" style="fill:black;"/>
                </g>
            </g>
            <g>
                <g transform="matrix(1,-0.00027068,0.00027068,1,-0.0117123,-0.0129025)">
                    <text x="84.6785px" y="115.393px" style="font-family:COCOGOOSE;font-size:40.287px;fill:black;">PROJECT</text>
                </g>
                <g transform="matrix(1,-0.00027068,0.00027068,1,-0.0117123,-0.0129025)">
                </g>
            </g>
            <g>
                <path d="M73.9108,115.936C68.7548,118.937 62.7228,120.582 57.2828,120.585L40.6816,120.594C28.4655,120.601 18.8582,110.699 18.5502,98.4871C18.348,90.4674 19.926,80.0859 29.5019,80.0418C38.6792,79.9996 41.496,87.7536 49.2569,87.351C59.7739,86.8054 60.9908,79.3636 71.1709,81.219C72.6469,81.488 74.3618,82.2667 76.0164,83.4938C73.354,83.5355 71.9278,83.6045 71.9278,83.6839L71.928,85.8305C71.928,85.9464 74.2192,86.0372 78.9599,86.0918L79.8982,87.0683L81.5241,89.3627L81.4071,89.3632C75.088,89.4349 71.9285,89.5299 71.9285,89.6481L71.9287,91.7947C71.9288,91.9424 75.6547,92.0496 82.9577,92.105C83.4299,93.1151 83.8209,94.2016 84.0996,95.3609L81.4097,95.3713C75.0906,95.443 71.931,95.538 71.931,95.6562L71.9313,97.8028C71.9313,97.959 76.0985,98.0699 84.5952,98.1188C84.6641,98.8393 84.6936,99.4513 84.6939,100.074L84.5955,101.354L81.4104,101.366C75.0913,101.438 71.9317,101.533 71.9317,101.651L71.932,103.798C71.932,103.951 75.9308,104.06 84.1011,104.112C83.7492,105.302 83.2548,106.441 82.7351,107.356L81.412,107.361C75.0929,107.433 71.9333,107.528 71.9334,107.646L71.9336,109.793C71.9336,109.924 74.8988,110.024 80.9135,110.089C79.9072,111.317 78.7437,112.453 77.5656,113.423C73.8586,113.47 71.935,113.548 71.935,113.641L71.9352,115.787L73.9108,115.936Z" style="fill:none;stroke-width:3.33px;stroke-linecap:round;stroke:black;"/>
            </g>
            <g>
                <path d="M78.9599,86.0918C74.2192,86.0372 71.928,85.9464 71.928,85.8305L71.9278,83.6839C71.9278,83.6045 73.354,83.5355 76.0164,83.4938L77.7543,84.8371L78.9599,86.0918Z" style="fill:none;stroke-width:3.33px;stroke-linecap:round;stroke:black;"/>
            </g>
            <g>
                <path d="M82.9577,92.105C75.6547,92.0496 71.9288,91.9424 71.9287,91.7947L71.9285,89.6481C71.9285,89.5299 75.088,89.4349 81.4071,89.3632L81.5241,89.3627L81.7963,89.7469L82.9577,92.105Z" style="fill:none;stroke-width:3.33px;stroke-linecap:round;stroke:black;"/>
            </g>
            <g>
                <path d="M84.5952,98.1188C76.0985,98.0699 71.9313,97.959 71.9313,97.8028L71.931,95.6562C71.931,95.538 75.0906,95.443 81.4097,95.3713L84.0996,95.3609L84.3264,96.289L84.5952,98.1188Z" style="fill:none;stroke-width:3.33px;stroke-linecap:round;stroke:black;"/>
            </g>
            <g>
                <path d="M84.1011,104.112C75.9308,104.06 71.932,103.951 71.932,103.798L71.9317,101.651C71.9317,101.533 75.0913,101.438 81.4104,101.366L84.5955,101.354L84.5214,102.318L84.1011,104.112Z" style="fill:none;stroke-width:3.33px;stroke-linecap:round;stroke:black;"/>
            </g>
            <g>
                <path d="M80.9135,110.089C74.8988,110.024 71.9336,109.924 71.9336,109.793L71.9334,107.646C71.9333,107.528 75.0929,107.433 81.412,107.361L82.7351,107.356L82.1316,108.432L80.9135,110.089Z" style="fill:none;stroke-width:3.33px;stroke-linecap:round;stroke:black;"/>
            </g>
            <g>
                <path d="M73.9108,115.936L71.9352,115.787L71.935,113.641C71.935,113.548 73.8586,113.47 77.5656,113.423C76.3854,114.38 75.1064,115.251 73.9108,115.936Z" style="fill:none;stroke-width:3.33px;stroke-linecap:round;stroke:black;"/>
            </g>
        </g>
    </g>
</svg>
